<svg width="44" height="39" viewBox="0 0 44 39" fill="none" xmlns="http://www.w3.org/2000/svg">
<path d="M36.4056 14.9976C36.4056 10.5793 32.8238 6.99756 28.4056 6.99756H8.98536C4.56708 6.99756 0.985352 10.5793 0.985352 14.9976V30.5588C0.985352 34.977 4.56707 38.5588 8.98535 38.5588H28.4056C32.8238 38.5588 36.4056 34.977 36.4056 30.5588V14.9976ZM33.4539 27.9287C33.4539 32.3469 29.8722 35.9287 25.4539 35.9287H11.937C7.51876 35.9287 3.93704 32.3469 3.93704 27.9287V17.6277C3.93704 13.2094 7.51876 9.62766 11.937 9.62766H25.4539C29.8722 9.62766 33.4539 13.2094 33.4539 17.6277V27.9287Z" fill="#425FAB"/>
<path d="M8.36426 3.5492C8.36426 4.36428 9.02501 5.02504 9.8401 5.02504H10.3297C10.8744 5.02504 11.3159 4.58346 11.3159 4.03875V4.03875C11.3159 3.49404 11.7575 3.05246 12.3022 3.05246H32.8328C37.2511 3.05246 40.8328 6.63419 40.8328 11.0525V28.313C40.8328 28.8876 40.367 29.3535 39.7923 29.3535V29.3535C39.2177 29.3535 38.7519 29.8193 38.7519 30.3939V30.6685C38.7519 31.3948 39.3406 31.9836 40.0669 31.9836H41.2682C42.6579 31.9836 43.7845 30.857 43.7845 29.4673V8.42236C43.7845 4.00408 40.2028 0.422363 35.7845 0.422363H10.6656C9.3946 0.422363 8.36426 1.45271 8.36426 2.7237V3.5492Z" fill="#425FAB"/>
</svg>
